<?xml version="1.0" ?>

<!DOCTYPE svg  PUBLIC '-//W3C//DTD SVG 1.1//EN'  'http://www.w3.org/Graphics/SVG/1.1/DTD/svg11.dtd'>

<!-- Uploaded to: SVG Repo, www.svgrepo.com, Generator: SVG Repo Mixer Tools -->
<svg fill="rgba(69, 0, 255, 1)" width="800px" height="800px" viewBox="0 0 512 512" version="1.1" xml:space="preserve" xmlns="http://www.w3.org/2000/svg" xmlns:xlink="http://www.w3.org/1999/xlink">

<g id="_x33_89_x2C__ad_x2C__advertisement_x2C__advertising_x2C__billboard_x2C__promo">

<g>

<path d="M109.999,100.157h118.816c1.753,0,3.194,1.429,3.194,3.194v43.205    c0,1.74-1.441,3.194-3.194,3.194H109.999c-1.765,0-3.193-1.454-3.193-3.194v-43.205    C106.805,101.586,108.233,100.157,109.999,100.157 M376.712,206.251H109.999c-1.765,0-3.193-1.429-3.193-3.193v-19.942    c0-1.766,1.428-3.193,3.193-3.193h266.713c1.753,0,3.194,1.428,3.194,3.193v19.942    C379.906,204.822,378.465,206.251,376.712,206.251z M231.477,313.382h42.322v-10.671h-42.322V313.382z M225.621,106.545H113.178    v36.818h112.443V106.545z M113.178,199.863h260.339v-13.555H113.178V199.863z M158.761,29.273    c-4.831-2.026-11.555-3.271-19.046-3.271s-14.229,1.245-19.046,3.271c-3.973,1.662-6.438,3.66-6.438,5.582    c0,1.869,2.388,3.842,6.219,5.504l0.22,0.078c3.104,1.299,6.985,2.285,11.373,2.805l3.479,0.338    c0.818,0.051,1.649,0.078,2.494,0.104h0.065h0.116h0.079h0.051l0,0h0.079h0.051l0.065,0.025h0.065h0.079l0,0h0.051h0.065h0.065    h0.079h0.051h0.039h0.04h0.051h0.079h0.051h0.079h0.051h0.014h0.065h0.065h0.065h0.077h0.065h0.065h0.077h0.053h0.077h0.065h0.014    h0.051h0.079h0.051h0.079h0.065h0.024h0.041h0.065h0.065h0.064h0.065h0.051h0.014h0.065l0.065-0.025h0.065h0.065h0.065l0,0h0.065    h0.065h0.13h0.051h0.039h0.041h0.051l0.936-0.025l0,0h0.051c0.896-0.053,1.767-0.105,2.624-0.182h0.012    c5.285-0.469,9.984-1.559,13.594-3.039c3.973-1.662,6.426-3.661,6.426-5.582c0-1.896-2.376-3.843-6.219-5.506L158.761,29.273z     M144.831,49.915c-1.22,0.078-2.467,0.13-3.726,0.156h-0.079h-0.051h-0.079h-0.013h-0.052h-0.065h-0.077h-0.053h-0.077    l-0.053,0.025h-0.012h-0.065h-0.065H140.3h-0.065h-0.065h-0.065h-0.065h-0.065h-0.065h-0.065h-0.065h-0.065h-0.065h-0.065h-0.065    h-0.065h-0.065h-0.053h-0.012h-0.065h-0.053h-0.077h-0.053h-0.077h-0.052h-0.013l-0.065-0.025h-0.064h-0.065h-0.052h-0.077h-0.051    h-0.014h-0.065h-0.065h-0.065c-1.272-0.026-2.518-0.078-3.752-0.156v11.087h10.23V49.915z M234.033,29.273    c-4.803-2.026-11.553-3.271-19.032-3.271c-7.503,0-14.229,1.245-19.046,3.271c-3.973,1.662-6.426,3.66-6.426,5.582    c0,1.869,2.364,3.842,6.207,5.504l0.219,0.078c3.104,1.299,6.998,2.285,11.36,2.805l3.479,0.338    c0.83,0.051,1.662,0.078,2.506,0.104h0.065h0.116h0.065h0.053h0.012h0.065h0.065l0.065,0.025h0.065h0.065h0.014h0.051h0.065h0.065    h0.065h0.065h0.039h0.026h0.065h0.065h0.079h0.051h0.052h0.026h0.065h0.065h0.065h0.065h0.077h0.065h0.065h0.065h0.065h0.077l0,0    h0.065h0.065h0.065h0.065h0.079h0.024h0.026h0.079h0.051h0.079h0.065h0.039h0.026h0.065l0.065-0.025h0.065h0.065h0.051h0.014    h0.065h0.065h0.116h0.079h0.025h0.026h0.065l0.921-0.025h0.014h0.051c0.897-0.053,1.753-0.105,2.624-0.182h0.012    c5.285-0.469,9.984-1.559,13.58-3.039c3.973-1.662,6.44-3.661,6.44-5.582c0-1.896-2.376-3.843-6.219-5.506L234.033,29.273z     M220.116,49.915c-1.22,0.078-2.467,0.13-3.739,0.156h-0.065h-0.065h-0.065h-0.012h-0.053h-0.077h-0.053h-0.077h-0.065    l-0.065,0.025l0,0h-0.065h-0.065h-0.065h-0.065h-0.065h-0.065h-0.077h-0.053h-0.065h-0.065h-0.077h-0.053h-0.077h-0.053h-0.065    h-0.065h-0.064h-0.065l0,0h-0.065h-0.065h-0.065h-0.065h-0.065h-0.065l0,0l-0.065-0.025h-0.065h-0.065h-0.065h-0.065h-0.065l0,0    h-0.077h-0.053h-0.077c-1.272-0.026-2.52-0.078-3.739-0.156v11.087h10.23V49.915z M309.318,29.273    c-4.816-2.026-11.541-3.271-19.044-3.271c-7.479,0-14.229,1.245-19.034,3.271c-3.973,1.662-6.438,3.66-6.438,5.582    c0,1.869,2.361,3.842,6.204,5.504l0.233,0.078c3.091,1.299,6.986,2.285,11.36,2.805l3.48,0.338    c0.817,0.051,1.647,0.078,2.505,0.104h0.052h0.13h0.064h0.053h0.013h0.064h0.064l0.053,0.025h0.077h0.053h0.026h0.051h0.053h0.077    h0.065h0.064h0.026h0.039h0.064h0.065h0.064h0.065h0.053h0.012h0.079h0.051h0.079h0.065h0.064h0.077h0.065h0.064h0.065h0.064    h0.013h0.064h0.065h0.064h0.065h0.064h0.026h0.039h0.064h0.079h0.051h0.079h0.038h0.013h0.079l0.051-0.025h0.079h0.051h0.079l0,0    h0.051h0.079h0.115h0.065h0.026h0.038h0.065l0.921-0.025h0.014h0.052c0.884-0.053,1.753-0.105,2.623-0.182l0,0    c5.298-0.469,9.997-1.559,13.592-3.039c3.974-1.662,6.427-3.661,6.427-5.582c0-1.896-2.362-3.843-6.205-5.506L309.318,29.273z     M295.39,49.915c-1.222,0.078-2.467,0.13-3.728,0.156h-0.064h-0.077h-0.053h-0.026h-0.051h-0.053h-0.077h-0.065h-0.064    l-0.079,0.025l0,0h-0.051h-0.079h-0.051h-0.077h-0.053h-0.077h-0.053h-0.077h-0.053h-0.077h-0.064h-0.065h-0.053h-0.077h-0.053    h-0.077h-0.053h-0.077l0,0h-0.053h-0.064h-0.065h-0.064h-0.065h-0.064h-0.013l-0.053-0.025h-0.077h-0.053h-0.064h-0.065h-0.077    l0,0h-0.053h-0.077h-0.064c-1.272-0.026-2.52-0.078-3.752-0.156v11.087h10.23V49.915z M384.605,29.273    c-4.83-2.026-11.554-3.271-19.045-3.271s-14.229,1.245-19.046,3.271c-3.974,1.662-6.427,3.66-6.427,5.582    c0,1.869,2.377,3.842,6.205,5.504l0.222,0.078c3.103,1.299,6.983,2.285,11.372,2.805l3.48,0.338    c0.817,0.051,1.646,0.078,2.491,0.104h0.065h0.117h0.077h0.053l0,0h0.077h0.053l0.064,0.025h0.065h0.077l0,0h0.053h0.064h0.064    h0.078h0.053h0.038h0.038h0.053h0.078h0.053h0.076h0.053h0.013h0.065h0.078h0.051h0.08h0.064h0.064h0.078h0.053h0.076h0.065h0.013    h0.053h0.076h0.053h0.078h0.064h0.026h0.038h0.065h0.065h0.064h0.064h0.053h0.013h0.065l0.064-0.025h0.064h0.065h0.064l0,0h0.079    h0.051h0.13h0.065h0.025h0.039h0.053l0.934-0.025l0,0h0.053c0.896-0.053,1.766-0.105,2.623-0.182h0.013    c5.283-0.469,9.982-1.559,13.593-3.039c3.973-1.662,6.426-3.661,6.426-5.582c0-1.896-2.375-3.843-6.218-5.506L384.605,29.273z     M370.676,49.915c-1.222,0.078-2.467,0.13-3.728,0.156h-0.077h-0.053h-0.077h-0.014h-0.051h-0.065h-0.078h-0.051h-0.08    l-0.051,0.025h-0.014h-0.064h-0.065h-0.065h-0.063h-0.064h-0.065h-0.065h-0.064h-0.064h-0.065h-0.065h-0.064h-0.064h-0.065h-0.065    h-0.064h-0.064h-0.053h-0.013h-0.065h-0.053h-0.076h-0.053h-0.078h-0.053h-0.012l-0.064-0.025h-0.065h-0.065h-0.052h-0.077h-0.053    h-0.013h-0.064h-0.065h-0.064c-1.272-0.026-2.52-0.078-3.752-0.156v11.087h10.23V49.915z M85.5,78.062h334.275    c1.753,0,3.193,1.429,3.193,3.193v218.263c0,1.766-1.44,3.193-3.193,3.193H280.174v10.671h154.31V67.39h-60.524h-0.09h-16.617    h-0.092h-58.487h-16.786h-58.5h-0.077h-16.618h-0.091h-58.486h-0.091h-16.617h-0.091H70.791v245.992h154.299v-10.671H85.5    c-1.753,0-3.193-1.428-3.193-3.193V81.255C82.307,79.49,83.748,78.062,85.5,78.062z M109.999,227.854    c-1.765,0-3.193-1.455-3.193-3.193c0-1.766,1.428-3.193,3.193-3.193h107.184c1.753,0,3.194,1.428,3.194,3.193    c0,1.738-1.44,3.193-3.194,3.193H109.999z M109.999,246.964c-1.765,0-3.193-1.454-3.193-3.194c0-1.766,1.428-3.193,3.193-3.193    h251.757c1.754,0,3.193,1.428,3.193,3.193c0,1.74-1.439,3.194-3.193,3.194H109.999z M109.999,266.074    c-1.765,0-3.193-1.454-3.193-3.193c0-1.766,1.428-3.194,3.193-3.194h251.757c1.754,0,3.193,1.429,3.193,3.194    c0,1.739-1.439,3.193-3.193,3.193H109.999z M212.548,413.582c-1.753,0-3.181-1.455-3.181-3.193c0-1.766,1.428-3.194,3.181-3.194    h18.929v-22.097h-18.929c-1.753,0-3.181-1.428-3.181-3.193s1.428-3.193,3.181-3.193h18.929v-22.098h-18.929    c-1.753,0-3.181-1.427-3.181-3.193c0-1.738,1.428-3.193,3.181-3.193h18.929v-18.436h-18.929c-1.753,0-3.181-1.453-3.181-3.193    c0-1.766,1.428-3.193,3.181-3.193h18.929v-5.635h42.322v5.635h18.929c1.753,0,3.182,1.428,3.182,3.193    c0,1.74-1.429,3.193-3.182,3.193h-18.929v18.436h18.929c1.753,0,3.182,1.455,3.182,3.193c0,1.767-1.429,3.193-3.182,3.193h-18.929    v22.098h18.929c1.753,0,3.182,1.428,3.182,3.193s-1.429,3.193-3.182,3.193h-18.929v22.097h18.929c1.753,0,3.182,1.429,3.182,3.194    c0,1.738-1.429,3.193-3.182,3.193h-18.929v31.6h-42.322v-31.6H212.548z M87.72,485.999c-1.765,0-3.193-1.429-3.193-3.194    s1.428-3.193,3.193-3.193h259.989c1.752,0,3.18,1.428,3.18,3.193s-1.428,3.194-3.18,3.194H87.72z M239.954,470.186    c-1.753,0-3.193-1.428-3.193-3.193c0-1.767,1.44-3.194,3.193-3.194h179.913c1.766,0,3.194,1.428,3.194,3.194    c0,1.766-1.429,3.193-3.194,3.193H239.954z M438.275,470.186c-1.767,0-3.193-1.428-3.193-3.193c0-1.767,1.427-3.194,3.193-3.194    h22.485c1.766,0,3.194,1.428,3.194,3.194c0,1.766-1.429,3.193-3.194,3.193H438.275z M77.476,470.679    c-1.751,0-3.194-1.454-3.194-3.193c0-1.767,1.443-3.194,3.194-3.194h85.258c1.751,0,3.193,1.428,3.193,3.194    c0,1.739-1.442,3.193-3.193,3.193H77.476z M451.829,232.969c0-1.766,1.44-3.193,3.193-3.193c1.766,0,3.194,1.428,3.194,3.193    v103.029c0,1.74-1.429,3.193-3.194,3.193h-69.795c-1.751,0-3.193-1.453-3.193-3.193c0-1.766,1.442-3.193,3.193-3.193h66.602    V232.969z M76.153,47.813c1.753,0,3.194,1.428,3.194,3.193c0,1.74-1.44,3.167-3.194,3.167H54.42v82.413    c0,1.74-1.428,3.193-3.194,3.193c-1.753,0-3.181-1.453-3.181-3.193v-85.58c0-1.766,1.428-3.193,3.181-3.193H76.153z     M416.582,84.449H88.68v211.874h139.524h48.866h139.512V84.449z" style="fill-rule:evenodd;clip-rule:evenodd;"/>

</g>

</g>

<g id="Layer_1"/>

</svg>