<?xml version="1.0" ?>

<!DOCTYPE svg  PUBLIC '-//W3C//DTD SVG 1.1//EN'  'http://www.w3.org/Graphics/SVG/1.1/DTD/svg11.dtd'>

<!-- Uploaded to: SVG Repo, www.svgrepo.com, Generator: SVG Repo Mixer Tools -->
<svg fill="rgba(69, 0, 255, 1)" width="800px" height="800px" viewBox="0 0 512 512" version="1.1" xml:space="preserve" xmlns="http://www.w3.org/2000/svg" xmlns:xlink="http://www.w3.org/1999/xlink">

<g id="_x33_91_x2C__bullhorn_x2C__marketing_x2C__mobile_x2C__megaphone_x2C__promotion">

<g>

<path d="M393.808,96.211l-0.337-28.692c-0.049-3.911-1.685-7.438-4.296-9.97    c-2.597-2.533-6.173-4.104-10.051-4.039l-205.025,2.468c-3.878,0.064-7.422,1.699-9.953,4.296    c-2.534,2.598-4.103,6.188-4.04,10.066l0.305,25.871H393.808z M184.645,146.637l-93.672,50.139l1.653,6.154l0.014,0.096    l2.548,9.521l72.004-37.379c1.923-0.962,4.31-0.225,5.303,1.699c0.979,1.924,0.225,4.328-1.699,5.289l-73.524,38.182    l12.743,47.508l1.667,6.219l7.742-0.223h0.063l0.035-0.033h0.063h0.031l39.142-1.249h0.067l59.047-1.892L184.645,146.637z     M86.052,208.86l-30.904,8.271l3.85,14.459l11.476,42.765l30.919-8.271L86.052,208.86z M232.058,190.011    c-2.036-1.154-4.376-1.827-6.812-1.892l7.054,26.319c2.018-1.218,3.685-2.885,4.84-4.841l0.112-0.225    c1.811-3.109,2.421-6.956,1.411-10.739c-0.993-3.718-3.366-6.7-6.395-8.495L232.058,190.011z M52.424,237.392l-11.683,3.142    l5.559,20.773l11.669-3.109L52.424,237.392z M177.77,330.615l-21.464-50.106l-30.775,0.995l24.254,56.58L177.77,330.615z     M411.453,327.891l-0.562-0.097h-0.046c-0.915-0.128-1.846-0.257-2.74-0.416l-0.066-0.032l-0.481-0.097l-0.225-0.032l-0.319-0.063    l-0.354-0.065l-0.189-0.031l-0.498-0.096l-0.063-0.032l-0.544-0.097l-1.074-0.256l-0.372-0.097l-0.175-0.032l-0.495-0.127h-0.031    l-0.53-0.129l-0.099-0.032l-0.445-0.129l-0.225-0.063l-0.291-0.064l-0.383-0.129l-0.144-0.031l-0.517-0.16h-0.014l-0.512-0.16    l-0.131-0.032l-0.399-0.128l-0.239-0.064l-0.273-0.096l-0.386-0.129l-0.126-0.032l-0.514-0.159l0,0l-0.516-0.193l-0.126-0.031    l-0.368-0.16l-0.256-0.064l-0.257-0.097l-0.386-0.159l-0.113-0.032l-0.494-0.192h-0.018l-0.48-0.193l-0.498-0.191l-0.271-0.097    l-0.21-0.097l-0.399-0.16l-0.096-0.064l-0.498-0.191l-0.014-0.032l-0.467-0.192l-0.145-0.064l-0.319-0.129l-0.273-0.127    l-0.207-0.098l-0.4-0.19l-0.066-0.032l-0.481-0.225l-0.031-0.033l-0.432-0.191l-0.176-0.096l-0.291-0.161l-0.287-0.128    l-0.176-0.096l-0.4-0.193l-0.066-0.031l-0.445-0.256l-0.067-0.033l-0.382-0.191l-0.18-0.129l-0.27-0.129l-0.288-0.16l-0.161-0.096    l-0.4-0.225l-0.049-0.032l-0.449-0.257l-0.063-0.031l-0.354-0.225l-0.189-0.128l-0.26-0.161l-0.288-0.16l-0.126-0.096l-0.4-0.257    h-0.035l-0.432-0.288l-0.063-0.032l-0.355-0.224l-0.175-0.129l-0.239-0.16l-0.291-0.191l-0.112-0.097l-0.399-0.288h-0.015    l-0.403-0.289l-0.095-0.064l-0.319-0.225l-0.193-0.128l-0.193-0.161l-0.287-0.225l-0.112-0.063l-0.4-0.321    c-10.739-8.304-17.407-19.876-17.407-32.731v-0.287v-0.257v-0.065l0.014-0.223l0.018-0.289v-0.097v-0.159v-0.289l0.015-0.129    l0.018-0.16v-0.256l0.018-0.193l0.014-0.096V279.9l0.032-0.225v-0.064l0.031-0.256l0.018-0.289l0,0l0.031-0.256l0.031-0.288    v-0.032l0.032-0.225l0.032-0.289l0.017-0.097l0.018-0.159l0.046-0.289v-0.128l0.031-0.129l0.035-0.288l0.031-0.16l0.032-0.096    l0.031-0.256l0.05-0.29l0.045-0.257l0.099-0.545l0.063-0.256v-0.032l0.063-0.225l0.066-0.288v-0.064l0.047-0.192l0.066-0.256    l0.076-0.257l0.067-0.257l0.031-0.159l0.032-0.129l0.063-0.257l0.066-0.192v-0.063l0.078-0.257    c0.179-0.609,0.368-1.219,0.578-1.827l0.032-0.097l0.049-0.159l0.095-0.225l0.096-0.257l0.098-0.257l0.193-0.513l0.076-0.225    l0.018-0.031l0.096-0.257l0.111-0.257l0,0l0.113-0.256l0.098-0.225l0.031-0.064l0.081-0.191l0.112-0.258l0.031-0.095l0.081-0.161    l0.112-0.225l0.063-0.128l0.049-0.129l0.112-0.256l0.078-0.16l0.049-0.064l0.129-0.257l0.032-0.096l0.063-0.096l0,0l0.049-0.096    l0.045-0.097l0.05-0.128l0.05-0.097l0.063-0.097v-0.031l0.049-0.064l0.049-0.096l0.064-0.096l0.094-0.193l0.031-0.063l0.032-0.033    l0.05-0.128l0.049-0.096l0.063-0.096l0.049-0.097l0.05-0.065v-0.031l0.063-0.096l0.063-0.096l0.049-0.096l0.05-0.098l0.063-0.096    l0,0l0.063-0.097l0.049-0.096l0.064-0.097l0.049-0.096l0.063-0.128h0.018l0.046-0.097l0.05-0.096l0.063-0.098l0.066-0.095    l0.046-0.096l0.032-0.032l0.031-0.064l0.066-0.097l0.063-0.097l0.131-0.191l0.031-0.064l0.014-0.031l0.066-0.097l0.064-0.097    l0.063-0.096l0.049-0.096l0.063-0.064V261.5l0.063-0.065l0.066-0.096l0.063-0.096l0.064-0.097l0.063-0.096l0.018-0.032    l0.049-0.065l0.063-0.096l0.063-0.096l0.063-0.096l0.066-0.097l0.032-0.032l0.032-0.064l0.08-0.096l0.063-0.096l0.064-0.096    l0.066-0.098l0.045-0.031l0.032-0.064l0.066-0.063l0.063-0.097l0.063-0.096l0.066-0.098c-9.331,1.861-17.617,5.676-24.012,10.869    c-8.366,6.796-13.497,15.9-13.497,25.87c0,5.898,1.779,11.477,4.952,16.445c3.352,5.226,8.24,9.81,14.234,13.399    c1.811,0.931,2.614,3.11,1.797,5.033l-6.717,15.549l23.499-12.631c0.769-0.48,1.698-0.705,2.66-0.545    c1.636,0.225,3.271,0.417,4.871,0.545c1.541,0.129,3.208,0.191,4.956,0.191c7.307,0,14.248-1.186,20.48-3.301l0.193-0.064    C406.694,330.102,409.13,329.076,411.453,327.891z M380.278,249.895c4.454-3.43,9.616-6.315,15.291-8.496l-1.667-137.334    l-233.396,0.032l0.562,46.29l23.851-12.79l16.958-14.33c0.467-0.448,1.025-0.77,1.667-0.93c2.116-0.544,4.264,0.706,4.826,2.789    l14.792,55.204c4.555-0.385,9.026,0.704,12.824,2.885l0.225,0.128c4.776,2.853,8.511,7.47,10.065,13.271    c1.558,5.867,0.61,11.83-2.211,16.703l-0.144,0.225c-2.197,3.686-5.482,6.764-9.536,8.688l14.811,55.235    c0.126,0.544,0.158,1.122,0.063,1.698c-0.386,2.148-2.436,3.559-4.552,3.175l-22.04-3.976l-57.914,1.859l22.04,51.453    c0.85,2.02-0.077,4.327-2.067,5.16l-21.348,5.738l0.382,31.642h233.414l-0.404-33.181c-4.295,0.771-8.767,1.187-13.332,1.187    c-1.814,0-3.672-0.063-5.549-0.192l-4.152-0.416l-32.521,17.472c-1.906,1.024-4.297,0.319-5.321-1.571    c-0.593-1.123-0.593-2.372-0.144-3.43l9.872-22.857c-5.802-3.912-10.609-8.72-14.104-14.17    c-3.977-6.219-6.219-13.239-6.219-20.677c0-12.438,6.25-23.69,16.414-31.962c9.647-7.821,22.889-12.951,37.636-13.752    L380.278,249.895z M421.023,244.668c-14.09,0-26.802,4.393-35.938,11.445c-0.543,0.416-1.056,0.834-1.572,1.283l-0.045,0.031l0,0    l-0.049,0.032l-0.032,0.032l-0.192,0.16l-0.131,0.128l-0.063,0.063l-0.176,0.161l-0.144,0.096l-0.032,0.065l-0.192,0.159    l-0.144,0.128l-0.05,0.032l-0.161,0.161l-0.176,0.159h-0.014l-0.18,0.193l-0.175,0.159l-0.176,0.161l-0.175,0.16v0.032l-0.18,0.16    l-0.176,0.16l-0.031,0.031l-0.126,0.161l-0.179,0.161l-0.046,0.031l-0.13,0.128l-0.162,0.192l-0.045,0.064l-0.273,0.289    l-0.063,0.063l-0.099,0.098l-0.176,0.192l-0.08,0.096l-0.081,0.096l-0.157,0.161l-0.081,0.096l-0.081,0.096l-0.144,0.16    l-0.112,0.129l-0.049,0.063l-0.158,0.193l-0.112,0.128l-0.05,0.031l-0.144,0.193l-0.737,0.93l0,0l-0.144,0.191l-0.417,0.578    l-0.032,0.031l-0.256,0.353l-0.032,0.032l-0.225,0.354l-0.049,0.063c-1.281,1.86-2.39,3.847-3.254,5.866l0,0l-0.48,1.219    l-0.031,0.128l-0.035,0.063l-0.127,0.385l-0.017,0.032l-0.077,0.192l-0.066,0.193l0,0l-0.289,0.929l-0.031,0.097l-0.094,0.353    l-0.035,0.063l-0.096,0.385l-0.018,0.033l-0.045,0.223l-0.066,0.193l0,0l-0.032,0.225l-0.063,0.192v0.063l-0.049,0.16    l-0.045,0.193l-0.018,0.096l-0.015,0.129l-0.05,0.191l-0.031,0.129l-0.018,0.096l-0.031,0.192l-0.031,0.192l-0.018,0.032    l-0.046,0.225l-0.035,0.191l0,0l-0.032,0.225l-0.031,0.225v0.032l-0.031,0.161l-0.031,0.224v0.096l-0.018,0.129l-0.031,0.191    l-0.015,0.129v0.096l-0.035,0.225l-0.015,0.16l-0.017,0.033l-0.015,0.223l-0.018,0.225l0,0l-0.014,0.225l-0.018,0.193v0.063    l-0.014,0.16l-0.018,0.225v0.096v0.128l-0.018,0.225v0.129v0.096l-0.014,0.193v0.191v0.032v0.225v0.224    c0,10.292,5.481,19.684,14.328,26.513c9.136,7.084,21.848,11.444,35.938,11.444h0.063h0.095h0.066h0.095h0.063h0.256h0.067h0.095    h0.225h0.095h0.066h0.158h0.098h0.063h0.081h0.08h0.081h0.077h0.081c1.042-0.031,2.035-0.064,3.015-0.16h0.049    c1.568-0.129,3.204-0.32,4.84-0.576c0.962-0.129,1.905,0.096,2.678,0.576l23.481,12.631l-6.717-15.549    c-0.817-1.923-0.018-4.136,1.797-5.064c5.994-3.559,10.883-8.143,14.231-13.368c3.176-4.968,4.955-10.547,4.955-16.446    c0-10.289-5.481-19.684-14.333-26.543C447.791,249.061,435.097,244.668,421.023,244.668z M202.375,133.141l-10.757,9.104    l34.495,128.776l13.88,2.501L225.92,221.01l-0.031-0.096l-0.032-0.096l-9.36-35.007l-0.035-0.097L202.375,133.141z M255.846,77.97    c-2.162,0-3.941-1.796-3.941-3.943c0-2.181,1.779-3.942,3.941-3.942h46.164c2.161,0,3.94,1.762,3.94,3.942    c0,2.147-1.779,3.943-3.94,3.943H255.846z M280.994,35.269c-2.161,0.032-3.94-1.731-3.976-3.879    c-0.015-2.18,1.716-3.942,3.881-3.975l118.436-1.411c6.044-0.096,11.525,2.309,15.533,6.219c4.021,3.912,6.569,9.426,6.749,15.453    l1.007,37.25c0.066,2.148-1.632,3.975-3.797,4.008c-2.166,0.064-3.977-1.635-4.022-3.814l-1.028-37.22    c-0.095-3.911-1.762-7.501-4.39-10.034c-2.58-2.533-6.093-4.07-9.971-4.039L280.994,35.269z M133.178,82.714    c0-2.18,1.762-3.943,3.941-3.943c2.183,0,3.945,1.764,3.945,3.943v56.421c0,1.539-0.898,2.885-2.211,3.527l-59.146,34.141v14.619    c0,2.18-1.765,3.943-3.944,3.943c-2.18,0-3.945-1.764-3.945-3.943v-16.863c0.018-1.346,0.706-2.693,1.972-3.397l59.388-34.302    V82.714z M151.964,469.585c-2.179,0-3.945-1.764-3.945-3.943s1.766-3.942,3.945-3.942h219.723c2.162,0,3.927,1.763,3.927,3.942    s-1.765,3.943-3.927,3.943H151.964z M280.612,485.999c-2.166,0-3.928-1.764-3.928-3.943c0-2.181,1.762-3.942,3.928-3.942h152.049    c2.18,0,3.941,1.762,3.941,3.942c0,2.18-1.762,3.943-3.941,3.943H280.612z M448.208,485.999c-2.165,0-3.927-1.764-3.927-3.943    c0-2.181,1.762-3.942,3.927-3.942h19.012c2.179,0,3.94,1.762,3.94,3.942c0,2.18-1.762,3.943-3.94,3.943H448.208z M130.356,485.485    c-2.18,0-3.941-1.763-3.941-3.943c0-2.18,1.762-3.943,3.941-3.943h72.032c2.18,0,3.945,1.764,3.945,3.943    c0,2.181-1.765,3.943-3.945,3.943H130.356z M397.748,422.877l-0.48-40.777h-233.41l0.526,43.599    c0.049,3.878,1.685,7.437,4.296,9.97c2.597,2.533,6.173,4.104,10.051,4.039l205.007-2.468c3.914-0.064,7.44-1.7,9.971-4.296    C396.243,430.347,397.813,426.757,397.748,422.877z" style="fill-rule:evenodd;clip-rule:evenodd;"/>

</g>

</g>

<g id="Layer_1"/>

</svg>