<?xml version="1.0" ?>

<!DOCTYPE svg  PUBLIC '-//W3C//DTD SVG 1.1//EN'  'http://www.w3.org/Graphics/SVG/1.1/DTD/svg11.dtd'>

<!-- Uploaded to: SVG Repo, www.svgrepo.com, Generator: SVG Repo Mixer Tools -->
<svg fill="rgba(69, 0, 255, 1)" width="800px" height="800px" viewBox="0 0 512 512" version="1.1" xml:space="preserve" xmlns="http://www.w3.org/2000/svg" xmlns:xlink="http://www.w3.org/1999/xlink">

<g id="B_-_192_x2C__smartphone_x2C__Business_x2C__mobile_x2C__tablet_x2C__phone">

<g>

<path d="M318.844,445.302c-1.939,0-3.479-1.54-3.479-3.477    c0-1.893,1.539-3.477,3.479-3.477h105.793c1.939,0,3.479,1.584,3.479,3.477c0,1.937-1.539,3.477-3.479,3.477H318.844z     M398.984,288.28c1.407-1.363,3.604-1.363,4.927,0c1.407,1.364,1.407,3.564,0,4.929l-47.97,48.014    c-1.408,1.363-3.611,1.363-4.927,0c-1.414-1.365-1.414-3.565,0-4.929L398.984,288.28z M402.766,317.193    c1.408-1.364,3.611-1.364,4.927,0c1.368,1.365,1.368,3.565,0,4.929l-66.188,66.189c-1.315,1.364-3.564,1.364-4.926,0    c-1.323-1.365-1.323-3.565,0-4.93L402.766,317.193z M404.615,339.857c1.36-1.319,3.609-1.319,4.926,0    c1.368,1.365,1.368,3.565,0,4.929L361.532,392.8c-1.368,1.364-3.565,1.364-4.934,0c-1.362-1.364-1.362-3.564,0-4.929    L404.615,339.857z M249.176,204.401c1.321-1.321,3.564-1.321,4.933,0c1.362,1.363,1.362,3.608,0,4.929L99.242,364.194    c-0.132,0.176-0.309,0.265-0.44,0.396v8.449h188.923V225.789c0-3.213,1.323-6.117,3.434-8.229l0.093-0.132l0.132-0.088    l0.085-0.088l0,0l0.132-0.088l0,0l0.085-0.088l0.092-0.133l0,0l0.086-0.088l0,0l0.178-0.087l0.086-0.088l0,0l0.092-0.045l0,0    l0.086-0.088l0,0l0.091-0.044v-0.044h0.04l0,0l0.047-0.044v-0.044h0.084l0,0v-0.044h0.047v-0.044h0.046l0,0h0.04l0.045-0.044l0,0    l0.047-0.044h0.039v-0.044l0,0l0.092-0.045l0,0l0,0l0.041-0.043h0.045v-0.045h0.046l0.047-0.043l0,0h0.039l0.046-0.045l0,0    l0.046-0.043h0.039l0,0l0.047-0.044h0.046v-0.045l0,0h0.085v-0.043h0.046l0.133-0.088l0,0l0.085-0.088l0.263-0.133l0,0    l0.178-0.044l0.092-0.044l0,0l0.132-0.088l0.132-0.044l0,0l0.085-0.044v-0.044l0,0h0.087l0.045-0.044h0.046l0,0l0.086-0.044    v-0.044h0.046l0.263-0.088h0.046l0.04-0.044h0.046l0,0l0.086-0.044l0,0l0,0l0.178-0.045l0.131-0.043l0.131-0.045l0,0l0.133-0.088    l0,0h0.138l0,0l0.132-0.043h0.039l0.092-0.045l0,0l0.132-0.044h0.04l0.092-0.044h0.046h0.132l0,0l0.131-0.044l0,0l0.131-0.044l0,0    l0.133-0.044h0.039h0.139l0.131-0.044h0.133h0.039l0.092-0.045h0.039h0.138l0,0l0.132-0.043l0,0h0.132l0,0h0.171l0,0l0.139-0.044    l0,0h0.131h0.171h0.132h0.139h0.17l0,0h0.178h45.943V74.401H98.802v280.375L249.176,204.401z M265.501,157.841    c1.368-1.365,3.565-1.365,4.934,0c1.36,1.364,1.36,3.563,0,4.928L158.873,274.33c-1.321,1.363-3.525,1.363-4.933,0    c-1.315-1.364-1.315-3.565,0-4.929L265.501,157.841z M280.643,114.932c1.361-1.364,3.564-1.364,4.887,0    c1.408,1.365,1.408,3.564,0,4.929l-89.868,89.908c-1.362,1.365-3.565,1.365-4.927,0c-1.368-1.364-1.368-3.608,0-4.929    L280.643,114.932z M229.371,407.366c-1.848-1.849-4.439-2.992-7.301-2.992c-2.821,0-5.374,1.144-7.221,2.992    c-1.888,1.893-3.033,4.445-3.033,7.261c0,2.861,1.145,5.414,3.033,7.307c1.848,1.804,4.4,2.992,7.221,2.992    c2.862,0,5.454-1.188,7.301-2.992c1.849-1.893,2.993-4.445,2.993-7.307C232.364,411.812,231.219,409.259,229.371,407.366z     M222.069,397.377c4.75,0,9.064,1.936,12.235,5.061c3.079,3.125,5.012,7.438,5.012,12.189c0,4.799-1.934,9.066-5.012,12.235    c-3.17,3.08-7.485,5.017-12.235,5.017c-4.755,0-9.069-1.937-12.148-5.017c-3.17-3.169-5.104-7.437-5.104-12.235    c0-4.752,1.934-9.064,5.104-12.189C213,399.313,217.314,397.377,222.069,397.377z M362.19,240.795c-1.935,0-3.48-1.539-3.48-3.476    s1.546-3.478,3.48-3.478h19.101c1.934,0,3.473,1.541,3.473,3.478s-1.539,3.476-3.473,3.476H362.19z M374.161,456.304    c-0.618-0.616-1.5-0.969-2.421-0.969c-0.928,0-1.803,0.353-2.375,0.925c-0.617,0.615-1.013,1.496-1.013,2.42    c0,0.925,0.396,1.761,1.013,2.377c0.572,0.617,1.447,1.012,2.375,1.012c0.921,0,1.803-0.395,2.421-1.012    c0.571-0.616,0.966-1.452,0.966-2.377C375.127,457.756,374.732,456.92,374.161,456.304z M371.74,448.338    c2.861,0,5.459,1.145,7.348,3.037c1.848,1.848,2.992,4.445,2.992,7.305c0,2.861-1.145,5.414-2.992,7.306    c-1.935,1.848-4.486,3.036-7.348,3.036s-5.414-1.188-7.309-3.036c-1.887-1.849-3.031-4.444-3.031-7.306    c0-2.816,1.145-5.413,3.031-7.305l0.047-0.045C366.373,449.482,368.926,448.338,371.74,448.338z M348.943,221.081h-0.086h-49.424    h-0.084h-0.047h-0.047h-0.084l0,0h-0.086h-0.047l0,0l-0.046,0.044l0,0h-0.085h-0.046h-0.047l0,0h-0.085l0,0l0,0l0,0l-0.086,0.043    h-0.046l0,0h-0.046h-0.086l0,0l-0.046,0.044l0,0h-0.046l0,0h-0.086l-0.045,0.044l0,0l-0.304,0.088l0,0h-0.091l0,0l-0.047,0.044    h-0.039l0,0h-0.047h-0.045v0.044h-0.039h-0.047l0,0l-0.047,0.044H297.5v0.045h-0.092l0,0l-0.039,0.043l0,0h-0.047l-0.045,0.045    l0,0l-0.047,0.043l0,0l-0.349,0.177l0,0c-0.263,0.177-0.526,0.396-0.789,0.616c-0.093,0.177-0.271,0.309-0.354,0.44l-0.047,0.044    l0,0l-0.039,0.043v0.044l-0.092,0.043v0.045v0.044h-0.041l-0.045,0.044l0,0v0.044l0,0v0.044v0.044h-0.092v0.088l0,0v0.044l0,0    l-0.086,0.044l0,0v0.045v0.044l-0.046,0.044l-0.04,0.044v0.088l-0.046,0.044l0,0l-0.046,0.044v0.043l0,0v0.045l0,0l-0.039,0.043    v0.045l-0.046,0.043v0.045v0.043l-0.047,0.045l-0.039,0.088l0,0v0.044v0.044v0.045l-0.046,0.088l-0.046,0.044v0.044v0.088v0.043    v0.044l-0.04,0.044v0.088v0.045l-0.046,0.043v0.088v0.045v0.043v0.045v0.088v0.045l-0.046,0.043v0.088v0.045v0.043v0.088v0.044    v0.088v150.772v0.088c0,30.059,0,60.116,0,90.173c0,1.276,0.526,2.465,1.368,3.302c0.875,0.879,2.019,1.407,3.341,1.407h144.659    c1.276,0,2.421-0.528,3.294-1.407c0.836-0.837,1.369-2.025,1.369-3.302V258.619H310.479c-1.935,0-3.474-1.585-3.474-3.477    c0-1.937,1.539-3.521,3.474-3.521h138.277v-25.833c0-1.32-0.533-2.464-1.369-3.345c-0.873-0.835-2.018-1.363-3.294-1.363H384.5    h-0.085H348.943z M95.322,67.448h253.536c1.887,0,3.473,1.54,3.473,3.477v143.202h28.605V66.436    c0-7.129-2.946-13.643-7.656-18.308c-4.663-4.708-11.176-7.658-18.305-7.658H89.166c-7.13,0-13.603,2.95-18.312,7.658    c-4.709,4.666-7.61,11.179-7.61,18.308v351.361c0,7.129,2.947,13.599,7.61,18.307c4.709,4.709,11.182,7.614,18.312,7.614h198.56    v-63.68H95.322c-1.934,0-3.519-1.585-3.519-3.478V70.924C91.803,68.987,93.388,67.448,95.322,67.448z" style="fill-rule:evenodd;clip-rule:evenodd;"/>

</g>

</g>

<g id="Layer_1"/>

</svg>