<?xml version="1.0" ?>

<!DOCTYPE svg  PUBLIC '-//W3C//DTD SVG 1.1//EN'  'http://www.w3.org/Graphics/SVG/1.1/DTD/svg11.dtd'>

<!-- Uploaded to: SVG Repo, www.svgrepo.com, Generator: SVG Repo Mixer Tools -->
<svg fill="rgba(69, 0, 255, 1)" width="800px" height="800px" viewBox="0 0 512 512" version="1.1" xml:space="preserve" xmlns="http://www.w3.org/2000/svg" xmlns:xlink="http://www.w3.org/1999/xlink">

<g id="_x37_1_x2C__Diamond_x2C__Canada_x2C__Jewel">

<g>

<polygon points="337.002,152 249.847,47.946 246.615,44.062 237.157,56.79 166.271,152   "/>

<polygon points="346.498,147.708 362.034,114.329 396.165,41 257.097,41 322.881,119.518   "/>

<path d="M396.014,361.001c-8.271,0-15,6.729-15,15s6.729,15,15,15s15-6.729,15-15S404.285,361.001,396.014,361.001z"/>

<polygon points="99.614,47.035 40.986,152 148.471,152   "/>

<path d="M76.014,441.001c-8.271,0-15,6.729-15,15s6.729,15,15,15s15-6.729,15-15S84.285,441.001,76.014,441.001z"/>

<polygon points="204.858,83.39 236.426,41 107.861,41 157.31,147.235   "/>

<path d="M152.712,162H42.422l156.881,210.688c0.021,0.029,0.043,0.052,0.063,0.081l44.845,63.017l-10.529-31.498L152.712,162z"/>

<polygon points="463.042,152 404.413,47.034 355.557,152   "/>

<polygon points="163.256,162 164.736,166.417 259.206,449.12 341.089,162   "/>

<path d="M351.487,162l-78.26,274.422l40.673-61.334c0.021-0.03,0.04-0.047,0.062-0.076L461.998,162H351.487z"/>

<path d="M111.013,366H101v-9.999c0-2.762-2.239-5-5-5s-5,2.238-5,5V366h-9.987c-2.761,0-5,2.238-5,5s2.239,5,5,5H91v10.001    c0,2.762,2.239,5,5,5s5-2.238,5-5V376h10.013c2.761,0,5-2.238,5-5S113.774,366,111.013,366z"/>

<path d="M466.014,296H456v-9.999c0-2.762-2.238-5-5-5s-5,2.238-5,5V296h-9.986c-2.762,0-5,2.238-5,5s2.238,5,5,5H446v10.001    c0,2.762,2.238,5,5,5s5-2.238,5-5V306h10.014c2.762,0,5-2.238,5-5S468.775,296,466.014,296z"/>

</g>

</g>

<g id="Layer_1"/>

</svg>