<?xml version="1.0" ?>

<!DOCTYPE svg  PUBLIC '-//W3C//DTD SVG 1.1//EN'  'http://www.w3.org/Graphics/SVG/1.1/DTD/svg11.dtd'>

<!-- Uploaded to: SVG Repo, www.svgrepo.com, Generator: SVG Repo Mixer Tools -->
<svg fill="rgba(69, 0, 255, 1)" width="800px" height="800px" viewBox="0 0 512 512" version="1.1" xml:space="preserve" xmlns="http://www.w3.org/2000/svg" xmlns:xlink="http://www.w3.org/1999/xlink">

<g id="_x33_72_x2C__data_x2C__document_x2C__file_x2C__media_x2C__website">

<g>

<path d="M166.334,387.488l-25.247-51.383l-28.104,29.376    c-1.683,1.302-4.129,1.017-5.431-0.667l-12.131-15.467l-40.966,38.141h55.034h0.095H166.334z M101.169,305.365    c3.557,0,6.763,1.43,9.083,3.748l0.252,0.285c2.192,2.287,3.525,5.398,3.525,8.797c0,3.524-1.46,6.764-3.778,9.082l-0.255,0.254    c-2.318,2.16-5.431,3.494-8.828,3.494c-3.525,0-6.733-1.43-9.051-3.748c-2.35-2.318-3.78-5.558-3.78-9.082    c0-3.525,1.462-6.732,3.78-9.082C94.437,306.795,97.645,305.365,101.169,305.365z M48.454,382.439l44.776-41.665    c1.556-1.46,4.034-1.397,5.494,0.19l12.162,15.497l28.392-29.756c1.492-1.556,3.969-1.62,5.526-0.159    c0.381,0.381,0.698,0.858,0.888,1.334l22.993,46.746v-76.883H109.68h-0.097h-0.095H82.146h-0.095H48.454V382.439z     M104.727,314.639c-0.89-0.92-2.16-1.461-3.557-1.461c-1.367,0-2.635,0.541-3.557,1.461c-0.89,0.889-1.462,2.159-1.462,3.557    s0.572,2.636,1.462,3.557c0.921,0.921,2.19,1.461,3.557,1.461c1.334,0,2.508-0.477,3.397-1.271l0.16-0.19    c0.919-0.921,1.492-2.159,1.492-3.557c0-1.302-0.507-2.508-1.302-3.398L104.727,314.639z M368.371,165.826v-30.105    c0.031-0.604,0.158-1.207,0.443-1.747c0.953-1.937,3.271-2.698,5.209-1.745l30.105,15.052c0.73,0.382,1.334,0.952,1.746,1.747    c0.953,1.938,0.16,4.255-1.746,5.207l-29.789,14.895c-0.604,0.381-1.302,0.604-2.063,0.604    C370.117,169.732,368.371,167.986,368.371,165.826z M443.444,114.031H386.09h-0.094h-54.78l-0.128,0.063l-0.063,0.159v0.349v0.445    v0.508l0.032,68.881c0.031,1.905,0.096,3.018,0.159,3.049h54.78h0.094h57.354l0.158-0.063l0.063-0.159v-73.009l-0.095-0.159    L443.444,114.031z M376.183,142.009v17.53l17.53-8.766L376.183,142.009z M109.583,62.299h245.069V36.545h-268.6v253.387h19.625    V66.205C105.678,64.046,107.425,62.299,109.583,62.299z M138.165,99.836c-2.158,0-3.906-1.746-3.906-3.906    s1.748-3.906,3.906-3.906h115.849c2.16,0,3.906,1.746,3.906,3.906s-1.746,3.906-3.906,3.906H138.165z M138.165,139.977    c-2.158,0-3.906-1.746-3.906-3.906s1.748-3.906,3.906-3.906h115.849c2.16,0,3.906,1.746,3.906,3.906s-1.746,3.906-3.906,3.906    H138.165z M138.165,159.284c-2.158,0-3.906-1.778-3.906-3.905c0-2.16,1.748-3.906,3.906-3.906h115.849    c2.16,0,3.906,1.746,3.906,3.906c0,2.127-1.746,3.905-3.906,3.905H138.165z M138.165,178.593c-2.158,0-3.906-1.778-3.906-3.906    c0-2.159,1.748-3.905,3.906-3.905h158.817c2.158,0,3.905,1.746,3.905,3.905c0,2.128-1.747,3.906-3.905,3.906H138.165z     M138.165,197.9c-2.158,0-3.906-1.777-3.906-3.906c0-2.159,1.748-3.906,3.906-3.906h158.817c2.158,0,3.905,1.747,3.905,3.906    c0,2.129-1.747,3.906-3.905,3.906H138.165z M138.165,217.178c-2.158,0-3.906-1.748-3.906-3.875c0-2.159,1.748-3.906,3.906-3.906    h158.817c2.158,0,3.905,1.747,3.905,3.906c0,2.127-1.747,3.875-3.905,3.875H138.165z M138.165,236.484    c-2.158,0-3.906-1.746-3.906-3.873c0-2.16,1.748-3.906,3.906-3.906h158.817c2.158,0,3.905,1.746,3.905,3.906    c0,2.127-1.747,3.873-3.905,3.873H138.165z M138.165,255.793c-2.158,0-3.906-1.747-3.906-3.873c0-2.16,1.748-3.906,3.906-3.906    h158.817c2.158,0,3.905,1.746,3.905,3.906c0,2.126-1.747,3.873-3.905,3.873H138.165z M461.006,118.795    c0-2.16,1.746-3.906,3.874-3.906c2.159,0,3.906,1.746,3.906,3.906v93.492c0,2.158-1.747,3.905-3.906,3.905h-47.922v60.116    c0,2.159-1.746,3.906-3.906,3.906c-2.127,0-3.906-1.747-3.906-3.906v-64.021c0-2.16,1.779-3.906,3.906-3.906h47.954V118.795z     M41.975,456.782c-2.16,0-3.906-1.747-3.906-3.906c0-2.128,1.746-3.906,3.906-3.906h306.706c2.16,0,3.906,1.778,3.906,3.906    c0,2.159-1.746,3.906-3.906,3.906H41.975z M221.591,475.455c-2.16,0-3.906-1.747-3.906-3.906c0-2.16,1.746-3.906,3.906-3.906    h212.23c2.16,0,3.906,1.746,3.906,3.906c0,2.159-1.746,3.906-3.906,3.906H221.591z M455.543,475.455    c-2.16,0-3.906-1.747-3.906-3.906c0-2.16,1.746-3.906,3.906-3.906h26.55c2.158,0,3.906,1.746,3.906,3.906    c0,2.159-1.748,3.906-3.906,3.906H455.543z M29.907,474.883c-2.16,0-3.906-1.746-3.906-3.906c0-2.158,1.746-3.905,3.906-3.905    h100.574c2.158,0,3.906,1.747,3.906,3.905c0,2.16-1.748,3.906-3.906,3.906H29.907z M382.09,70.08h-23.438H113.49v219.852h59.1    c2.16,0,3.906,1.747,3.906,3.906v97.557c0,2.128-1.746,3.875-3.906,3.875h-59.1v24.738h268.6V195.297h-50.874    c-2.192,0-4.224-0.921-5.653-2.35c-0.539-0.541-1.017-1.176-1.397-1.874l0,0l-0.032-0.063l0,0l-0.159-0.318l-0.031-0.031v-0.063    l-0.032-0.033v-0.031l-0.031-0.063l-0.031-0.032l-0.095-0.223v-0.031l-0.032-0.063v-0.033l-0.031-0.063l0,0l-0.031-0.096l0,0    l-0.033-0.096l0,0l-0.032-0.096l0,0l-0.031-0.063v-0.031l-0.032-0.064v-0.031v-0.063l-0.031-0.032v-0.063v-0.032l-0.031-0.031    v-0.063l-0.031-0.032v-0.063v-0.031l-0.032-0.064v-0.031v-0.063l-0.031-0.032v-0.063v-0.032l-0.032-0.063l0,0v-0.095l0,0    l-0.033-0.096l0,0v-0.095l0,0l-0.031-0.096l0,0v-0.095v-0.033l-0.031-0.063v-0.031v-0.064v-0.031v-0.063v-0.032v-0.063    l-0.031-0.031v-0.063v-0.032v-0.063v-0.063l0,0v-0.096v-0.032v-0.063l0,0v-0.096v-0.031v-0.096v-73.009    c0-2.19,0.889-4.224,2.35-5.653c1.43-1.459,3.461-2.35,5.653-2.35h50.874V70.08z" style="fill-rule:evenodd;clip-rule:evenodd;"/>

</g>

</g>

<g id="Layer_1"/>

</svg>