<?xml version="1.0" ?>

<!DOCTYPE svg  PUBLIC '-//W3C//DTD SVG 1.1//EN'  'http://www.w3.org/Graphics/SVG/1.1/DTD/svg11.dtd'>

<!-- Uploaded to: SVG Repo, www.svgrepo.com, Generator: SVG Repo Mixer Tools -->
<svg fill="rgba(69, 0, 255, 1)" width="800px" height="800px" viewBox="0 0 512 512" version="1.1" xml:space="preserve" xmlns="http://www.w3.org/2000/svg" xmlns:xlink="http://www.w3.org/1999/xlink">

<g id="_x33_47_x2C__hill_x2C__landscape_x2C__nature_x2C__mountain_x2C__sun">

<g>

<path d="M83.335,413.542c2.678-6.023,5.294-11.195,7.869-16.286    c4.238-8.375,8.376-16.549,12.432-27.744l0.365-1.055c6.165-17.076,7.829-21.701,16.407-36.241c3.408-5.8,5.7-10.647,7.444-16.164    c1.744-5.558,2.96-11.824,4.198-20.443v-0.101c0.791-5.7,1.358-9.613,2.21-13.346c0.892-3.813,2.069-7.342,4.097-12.189    c2.556-6.145,6.449-7.768,10.405-9.409c2.981-1.257,6.023-2.515,7.97-6.794c3.001-6.592,10.08-15.637,16.813-24.217l0.121-0.141    l2.312-2.961l-0.162,0.121l-0.203,0.142l-0.203,0.163l-0.305,0.223l-0.283,0.203l-0.305,0.223l0,0l-0.284,0.223h-0.02    l-0.284,0.223l0,0l-0.284,0.204l-0.02,0.021l-0.284,0.203v0.02l-0.284,0.203l0,0l-0.304,0.223l0,0l-0.284,0.224h-0.021    l-0.263,0.202l-0.02,0.021l-0.284,0.202v0.021l-0.284,0.203l-0.021,0.021l-0.283,0.203l0,0l-0.284,0.223h-0.021l-0.264,0.223    h-0.02l-0.283,0.223l0,0l-0.284,0.225h-0.021l-0.263,0.223h-0.021l-0.547,0.426l-0.02,0.02h-0.021l-0.263,0.225h-0.021    l-0.263,0.223l-0.02,0.02l-0.285,0.203l-0.02,0.02l-0.263,0.204l-0.021,0.021l-0.263,0.223l-0.02,0.02l-0.264,0.203l-0.021,0.02    l-0.263,0.203l-0.02,0.021l-0.264,0.223l-0.02,0.02l-0.263,0.203l-0.042,0.02l-0.547,0.447l-0.02,0.02l-0.243,0.224l-0.041,0.021    l-0.243,0.202l-0.041,0.042l-0.244,0.202l-0.041,0.021l-0.243,0.223l-0.04,0.02l-0.244,0.225l-0.041,0.02l-0.243,0.223    l-0.021,0.021l-0.527,0.446l-0.021,0.021l-0.02,0.021l-0.243,0.223l-0.04,0.02l-0.244,0.225l-0.041,0.02l-0.243,0.223    l-0.021,0.041l-0.244,0.223l-0.041,0.021l-0.243,0.223l-0.041,0.02l-0.507,0.487l-0.04,0.04l-0.243,0.223l-0.02,0.021    l-0.244,0.244l-0.041,0.021l-0.243,0.223l-0.021,0.04l-0.244,0.224l-0.041,0.041l-0.507,0.486l-0.041,0.041l-0.223,0.223    l-0.042,0.04l-0.223,0.244l-0.041,0.04l-0.223,0.223l-0.042,0.041l-0.223,0.244l-0.061,0.04l-0.487,0.507l-0.041,0.041    l-0.224,0.243l-0.041,0.04l-0.487,0.527l-0.041,0.041l-0.203,0.242l-0.061,0.042l-0.203,0.243l-0.041,0.04l-0.284,0.345    l-0.062,0.062l-0.061,0.061l-0.223,0.263l-0.062,0.063l-0.061,0.08l-0.04,0.062l0,0l-0.061,0.061l-0.062,0.061l-0.061,0.062    l-0.02,0.04l-0.021,0.021l-0.062,0.08l-0.061,0.063l-0.061,0.061v0.02l-0.041,0.041l-0.061,0.061l-0.061,0.081l-0.041,0.04    l-0.021,0.021l-0.061,0.061l-0.04,0.061l-0.062,0.061l-0.021,0.021l-0.04,0.039l-0.061,0.082l-0.042,0.061l-0.061,0.041v0.02    l-0.061,0.061l-0.061,0.062l-0.041,0.061l-0.041,0.04l-0.02,0.041l-0.062,0.061l-0.061,0.061l-0.04,0.063h-0.021l-0.04,0.061    l-0.062,0.061l-0.061,0.061l-0.02,0.041l-0.021,0.02l-0.062,0.061l-0.061,0.082l-0.061,0.061h-0.021l-0.02,0.062l-0.061,0.061    l-0.061,0.061l-0.062,0.062l0,0l-0.04,0.061l-0.061,0.061l-0.062,0.061l-0.021,0.041l-0.04,0.02l-0.041,0.061l-0.062,0.063    l-0.061,0.061v0.02l-0.04,0.041l-0.061,0.061l-0.062,0.061l-0.041,0.061h-0.02l-0.041,0.062l-0.061,0.061l-0.061,0.061    l-0.021,0.042l-0.223,0.223c-1.076,1.217-2.171,2.393-3.266,3.568l-0.142,0.162l-0.061,0.041l-0.021,0.021l-0.02,0.02    c-1.906,2.068-3.854,4.097-5.78,6.104c-5.03,5.254-10.019,10.486-14.439,15.861c-3.57,4.542-5.679,7.807-7.241,11.275    c-1.582,3.469-2.657,7.281-4.137,12.838l-0.02,0.041c-2.475,8.963-4.928,15.534-8.519,21.457    c-3.609,5.941-8.315,11.113-15.271,17.258c-16.042,14.137-19.186,18.66-30.766,35.33l-0.771,1.096    c-8.01,11.52-16.104,19.834-24.398,28.352c-4.177,4.28-8.417,8.641-12.655,13.427H83.335z M414.033,413.542h43.523l-12.33-13.954    c-6.004-6.651-10.77-11.925-14.096-21.518l-0.486-1.419c-6.47-18.7-6.49-18.78-24.256-31.091    c-14.197-9.836-17.604-18.132-20.89-26.041c-2.575-6.227-5.05-12.209-13.588-18.557c-6.085-4.34-10.769-6.713-14.987-8.844    c-7.586-3.852-13.73-6.955-23.566-18.658l-3.083,2.576c-2.474,2.069-4.968,4.137-7.442,6.328    c-5.618,4.988-9.533,9.491-12.574,13.812c7.787,9.288,13.527,12.634,20.26,16.549c3.631,2.109,7.524,4.381,12.27,7.828    c7.891,5.76,10.102,11.135,12.393,16.731c2.353,5.72,4.826,11.723,15.027,18.801c15.374,10.668,15.414,10.75,21.052,27.076    l0.386,1.114c2.352,6.774,5.881,10.688,10.343,15.616L414.033,413.542z M289.773,328.748c-0.812,1.662-2.291,3.406-4.3,5.232    l-0.567,0.709c-4.766,5.781-9.775,10.506-14.744,14.865l-0.122,0.103l-0.101,0.101c-2.191,1.927-4.584,3.976-7.362,6.268    l-0.284,0.244c-7.747,6.57-15.129,13.121-21.031,22.369c-1.704,2.981-3.488,6.449-5.78,10.972l-2.414,4.726    c-3.854,7.483-8.437,13.162-13.466,19.206h187.8l-9.105-10.323c-4.828-5.354-8.66-9.593-11.338-17.34l-0.385-1.115    c-5.111-14.785-5.151-14.846-19.186-24.58c-11.418-7.93-14.177-14.645-16.792-21.012c-2.028-4.949-3.976-9.674-10.729-14.603    c-4.441-3.244-8.275-5.476-11.824-7.544c-6.895-3.996-12.775-7.443-20.645-16.529c-1.704,2.779-3.185,5.537-4.686,8.295    c-3.185,5.942-6.47,12.027-12.229,19.084l-0.041,0.061h-0.021l-0.02,0.041l-0.121,0.143l-0.041,0.061l-0.021,0.021l-0.081,0.101    l-0.081,0.102l-0.061,0.061l-0.041,0.041l-0.081,0.121L289.773,328.748z M261.604,299.381l-0.405-0.426l-0.021-0.041    c-1.46-1.562-2.921-3.104-4.381-4.604l-0.122-0.122l-1.541-1.542l-0.021-0.04l-0.161-0.162l-0.183-0.183l-0.062-0.061    l-0.142-0.143l-0.183-0.182l-0.101-0.102l-0.102-0.081l-0.183-0.202l-0.142-0.123l-0.061-0.061l-0.365-0.344l-0.02-0.021    l-0.183-0.183l-0.203-0.203l0,0l-0.183-0.182l-0.204-0.184l-0.041-0.041l-0.142-0.142l-0.283-0.243l-0.102-0.122l-0.203-0.183    l-0.102-0.101l-0.081-0.081l-0.203-0.184l-0.142-0.121l-0.041-0.041l-0.203-0.182l-0.183-0.184l0,0l-0.204-0.182l-0.183-0.162    l-0.04-0.041l-0.163-0.143l-0.182-0.182l-0.061-0.041l-0.142-0.121l-0.183-0.184l-0.102-0.08l-0.101-0.082l-0.183-0.182    l-0.142-0.102l-0.061-0.062l-0.183-0.183l-0.162-0.141l-0.042-0.021l-3.325-2.799c-11.175-9.329-13.954-11.641-20.91-27.46    c-8.194-18.618-13.547-22.451-21.64-28.271l-0.122-0.081l-0.061-0.04l-0.042-0.042l-0.121-0.08l-0.041-0.02l-0.081-0.063l0,0    l-0.223-0.161l-0.062-0.041l-0.061-0.04l-0.122-0.081v-0.021l-0.121-0.082l-0.082-0.039l-0.041-0.041l-0.102-0.082l-0.04-0.02    l-0.081-0.061l-0.122-0.082l0,0l-0.122-0.101l-0.061-0.041l-0.061-0.04l-0.122-0.081l-0.02-0.021l-0.102-0.082l-0.101-0.061    l-0.021-0.02l-0.121-0.082l-0.041-0.04l-0.082-0.061l-0.122-0.081l0,0l-0.121-0.102l-0.082-0.041l-0.041-0.041l-0.122-0.08    l-0.041-0.041l-0.081-0.061l-0.122-0.081h-0.02l-0.122-0.102l-0.061-0.04l-0.062-0.063l-0.121-0.08l-0.02-0.02l-0.102-0.082    l-0.102-0.061l-0.041-0.041l-0.121-0.081l-0.041-0.04l-0.081-0.061l-0.122-0.082l-0.021-0.02l-0.122-0.082l-0.081-0.061    l-0.04-0.041l-0.142-0.101l-0.021-0.021l-0.102-0.081l-0.101-0.081l-0.041-0.021l-0.183-0.141l-0.081-0.062l-0.122-0.101h-0.02    l-0.122-0.102l-0.081-0.061l-0.041-0.041l-0.142-0.102l-0.041-0.02l-0.082-0.082l-0.122-0.102h-0.02l-0.141-0.102l-0.062-0.061    l-0.061-0.04l-0.142-0.122h-0.021l-0.223-0.182l-0.041-0.021l-0.142-0.121l-0.041-0.041l-0.081-0.061l-0.143-0.121l-0.142-0.102    l-0.081-0.061l-0.062-0.061l-0.141-0.103l-0.041-0.021l-0.101-0.102l-0.122-0.101h-0.02l-0.142-0.122l-0.061-0.061l-0.082-0.062    l-0.142-0.121h-0.02l-0.122-0.102c0.73,3.712,0.041,6.267-0.75,9.349c-1.136,4.28-2.616,9.837,0.527,23.547    c3.305,14.521,4.766,16.894,9.836,25.169l2.088,3.447c2.799,4.646,19.734,11.317,37.378,18.253    c11.296,4.441,22.897,9.004,31.699,13.527l-1.907-2.23l-0.121-0.163l-0.061-0.061l-0.183-0.223l-0.163-0.183l-0.04-0.04    l-0.183-0.224l-0.183-0.223h-0.02l-0.183-0.223l-0.183-0.203l-0.04-0.062l-0.143-0.163l-0.202-0.223l-0.062-0.08l-0.121-0.143    l-0.183-0.224l-0.102-0.121l-0.284-0.324l-0.121-0.143l-0.082-0.081l-0.183-0.223l-0.162-0.184l-0.04-0.04l-0.183-0.223    l-0.183-0.202v-0.021l-0.203-0.204l-0.183-0.223l-0.02-0.04l-0.183-0.183l-0.183-0.223l-0.062-0.062l-0.142-0.163l-0.182-0.223    l-0.082-0.101l-0.122-0.122l-0.183-0.223l-0.121-0.122l-0.081-0.102l-0.183-0.223l-0.143-0.163l-0.061-0.061l-0.183-0.223    l-0.162-0.184l-0.04-0.02l-0.183-0.223l-0.202-0.223l0,0l-0.183-0.223l-0.204-0.225l-0.02-0.04l-0.163-0.183l-0.202-0.223    l-0.061-0.062l-0.143-0.142l-0.183-0.224l-0.08-0.101l-0.122-0.122l-0.183-0.223l-0.122-0.122l-0.081-0.102l-0.345-0.385    l-0.041-0.041l-0.202-0.223l-0.386-0.447l-0.202-0.202v-0.021l-0.183-0.202l-0.203-0.224l-0.02-0.021l-0.183-0.183l-0.387-0.445    l-0.202-0.223l-0.386-0.427l-0.101-0.122l-0.102-0.102l-0.588-0.648l-0.162-0.162l-0.042-0.041L261.604,299.381z M252.092,282.953    l0.122,0.102l0.203,0.183l0.142,0.122l0.061,0.061l0.183,0.162l0.203,0.183l0,0l0.204,0.183l0.203,0.182l0.061,0.061l0.142,0.123    l0.182,0.162l0.122,0.121l0.081,0.061l0.203,0.184l0.182,0.182h0.021l0.182,0.183l0.204,0.203l0.061,0.04l0.142,0.143l0.203,0.182    l0.102,0.102l0.081,0.082l0.203,0.182l0.183,0.162l0.02,0.041l0.203,0.184l0.386,0.385l0.203,0.183l0.101,0.081l0.102,0.102    l0.203,0.202l0.183,0.183l0.202,0.203c2.516,2.453,5.01,5.05,7.505,7.727l0,0l0.162,0.183l0.183,0.183l0.345,0.385l0.162,0.183    l0.04,0.062l0.122,0.122l0.183,0.202l0.143,0.162l0.02,0.021l0.183,0.182l0.162,0.183l0.102,0.101l0.081,0.102l0.162,0.184    l0.183,0.202l0.021,0.021l0.143,0.162l0.182,0.183l0.121,0.142l0.042,0.061l0.161,0.183l0.184,0.183l0.061,0.082l0.101,0.121    l0.183,0.184l0.162,0.202l0,0l0.183,0.183l0.162,0.203l0.102,0.121l0.081,0.061l0.162,0.203l0.183,0.182l0.041,0.041l0.121,0.162    l0.183,0.183l0.143,0.162l0.02,0.042l0.163,0.182l0.182,0.203l0.082,0.08l0.081,0.123l0.183,0.182l0.345,0.385l0.162,0.203    l0.122,0.122l0.061,0.081l0.162,0.184l0.162,0.202l0.061,0.061l0.122,0.142l0.507,0.588l0.183,0.184l0.081,0.102l3.326,3.854    c8.66-6.938,15.799-15.738,20.809-25.777c5.151-10.324,8.051-21.984,8.051-34.336c0-21.254-8.619-40.501-22.532-54.414    c-13.933-13.932-33.178-22.552-54.433-22.552s-40.501,8.62-54.414,22.552c-12.655,12.656-20.93,29.691-22.329,48.635l2.394-2.719    l0.203-0.242l0.041-0.041l0.102-0.102l0.162-0.203l0.101-0.121l0.183-0.184l0.102-0.121l0.183-0.184l0.101-0.1l0.182-0.203    l0.082-0.102l0.183-0.203l0.102-0.102l0.182-0.203l0.101-0.08l0.183-0.203l0.102-0.102l0.183-0.183l0.101-0.102l0.182-0.202    l0.102-0.082l0.182-0.202l0.082-0.081l0.203-0.203l0.101-0.08l0.183-0.204l0.082-0.081l0.203-0.182l0.101-0.082l0.204-0.203    l0.081-0.08l0.203-0.203l0.082-0.082l0.203-0.182l0.081-0.081l0.203-0.202l0.082-0.063l0.284-0.263l0.223-0.202l0.061-0.063    l0.223-0.202l0.062-0.061l0.223-0.202l0.082-0.063l0.223-0.202l0.061-0.061l0.223-0.202l0.062-0.062l0.223-0.203l0.081-0.061    l0.224-0.183l0.061-0.061l0.223-0.203l0.062-0.061l0.243-0.203l0.061-0.041l0.224-0.203l0.061-0.039l0.243-0.203l0.062-0.061    l0.527-0.447l0.061-0.04l0.223-0.202l0.062-0.041l0.243-0.203l0.061-0.041l0.244-0.202l0.041-0.04l0.243-0.203l0.062-0.041    l0.243-0.203l0.041-0.04l0.264-0.202l0.041-0.041l0.547-0.426l0.041-0.041l0.263-0.203l0.041-0.041l0.264-0.202l0.04-0.021    l0.243-0.203l0.042-0.039l0.263-0.203l0.04-0.021l0.264-0.204l0.041-0.039l0.264-0.203l0.02-0.021l0.283-0.202l0.021-0.021    l0.284-0.224l0.02-0.021l0.264-0.202l0.041-0.021l0.263-0.202l0.041-0.021l0.263-0.202l0.021-0.021l0.284-0.223h0.02l0.284-0.223    l0.021-0.021l0.303-0.223l0.285-0.203l0.02-0.02l0.284-0.224h0.02l0.284-0.223l0,0l0.304-0.224l0,0l0.305-0.223l0,0l0.304-0.223    l0,0l0.304-0.224l0,0l0.305-0.224v-0.02l0.304-0.223l0,0l0.305-0.224l0,0l0.303-0.224l0.224-0.162l0.223-0.162l0,0l0.223-0.162    v-0.02l0.223-0.162l0,0l0.224-0.163h0.02l0.203-0.162l0.021-0.021l0.223-0.162l0,0l0.224-0.162l0,0l0.223-0.162v-0.021    l0.223-0.142l0.02-0.021l0.203-0.163h0.021l0.204-0.162l0.02-0.02l0.203-0.143l0.02-0.02l0.223-0.162l0.02-0.021l0.204-0.142    l0.02-0.021l0.203-0.142l0.021-0.021l0.203-0.162l0.02-0.02l0.203-0.143l0.021-0.021l0.203-0.162l0.041-0.021l0.183-0.143    l0.041-0.02l0.182-0.162l0.041-0.021l0.204-0.142l0.02-0.041l0.203-0.143l0.041-0.02l0.183-0.143l0.04-0.04l0.183-0.142    l0.041-0.021l0.183-0.142l0.041-0.041l0.183-0.143l0.04-0.04l0.183-0.122l0.041-0.04l0.182-0.142l0.062-0.041l0.163-0.143    l0.061-0.039l0.162-0.123l0.061-0.04l0.162-0.142l0.062-0.041l0.183-0.143l0.041-0.039l0.182-0.143l0.041-0.041l0.183-0.142    l0.04-0.04l0.183-0.123l0.042-0.061l0.182-0.121l0.061-0.061l0.163-0.122l0.061-0.061l0.162-0.122l0.062-0.061l0.162-0.122    l0.061-0.061l0.163-0.122l0.061-0.061l0.162-0.121l0.061-0.061l0.163-0.123l0.061-0.061l0.163-0.121l0.061-0.061l0.162-0.122    l0.061-0.061l0.142-0.142l0.081-0.063l0.142-0.121l0.082-0.061l0.142-0.121l0.081-0.063l0.142-0.141l0.081-0.062l0.142-0.121    l0.082-0.062l0.141-0.121l0.082-0.082l0.142-0.121l0.081-0.061l0.142-0.122l0.081-0.081l0.142-0.121l0.305-0.264l0.122-0.122    l0.101-0.081l0.122-0.121l0.081-0.082l0.142-0.102l0.082-0.102l0.142-0.101l0.082-0.081l0.223-0.203l0.122-0.122l0.101-0.081    l0.122-0.121l0.102-0.081l0.101-0.122l0.102-0.08l0.122-0.123l0.04-0.04l0.061-0.062l0.041-0.04l0,0l0.041-0.021l0.021-0.02    l0.02-0.021l0.02-0.021l0,0l0.021-0.021l0.02-0.02l0,0l0.041-0.02h0.02v-0.021l0.041-0.02l0.061-0.041l0,0l0.021-0.02h0.02    l0.062-0.041l0,0l0.02-0.021h0.02l0.021-0.021l0,0h0.02l0.02-0.02l0,0l0.021-0.021h0.02l0.021-0.021h0.02l0.041-0.02h0.02    l0.021-0.021l0,0l0.02-0.021h0.02h0.021l0.021-0.021h0.02h0.021l0.02-0.021h0.02h0.021l0.02-0.02h0.02l0.021-0.021h0.021h0.02    h0.02l0.021-0.021h0.02h0.02l0.041-0.02h0.021h0.02h0.021l0.02-0.021h0.041h0.02l0,0l0.041-0.021h0.021h0.02h0.041h0.02    l0.02-0.021h0.021h0.02h0.042h0.02h0.02h0.041h0.02h0.041h0.021h0.061h0.101h0.021h0.04h0.021h0.04h0.021h0.041l0.02,0.021h0.121    l0.021,0.021h0.021h0.02h0.021l0.02,0.021h0.02h0.021h0.04l0.021,0.02h0.041l0.02,0.021h0.021h0.02l0.02,0.021h0.041l0,0    l0.062,0.02l0,0l0.04,0.021h0.021l0.04,0.021h0.021l0.041,0.021v0.021h0.021l0.04,0.02l0,0h0.02l0.041,0.021l0,0l0.042,0.04h0.02    l0.041,0.021l0,0l0.04,0.021l0.021,0.021l0.02,0.02h0.021l0.02,0.02l0,0l0.041,0.021l0,0l0.041,0.039h0.02l0.02,0.021l0,0    l0.042,0.039h0.02v0.021l0.061,0.041l0.041,0.04l0.04,0.021l0,0v0.02l0.042,0.021v0.021l0,0l0.02,0.021l0.02,0.021h0.021    l0.04,0.04l0.203,0.202l0.082,0.082l0.223,0.203l0.082,0.08l0.203,0.203l0.081,0.082l0.203,0.202l0.082,0.081l0.223,0.182    l0.061,0.082l0.224,0.203l0.061,0.061l0.223,0.203l0.062,0.061l0.223,0.203l0.061,0.061l0.203,0.203l0.082,0.061l0.203,0.183    l0.082,0.061l0.203,0.202l0.061,0.063l0.203,0.182l0.082,0.061l0.203,0.183l0.061,0.062l0.203,0.183l0.061,0.061l0.223,0.183    l0.04,0.061l0.223,0.182l0.062,0.042l0.203,0.183l0.061,0.061l0.203,0.182l0.062,0.041l0.203,0.182l0.04,0.042l0.223,0.183    l0.041,0.04l0.223,0.183l0.04,0.041l0.203,0.182l0.062,0.041l0.203,0.162l0.041,0.041l0.203,0.183l0.062,0.04l0.203,0.162    l0.04,0.041l0.203,0.182l0.041,0.021l0.203,0.182l0.042,0.021l0.223,0.183l0.243,0.202l0.041,0.021l0.203,0.162l0.041,0.04    l0.203,0.162l0.02,0.021l0.203,0.163l0.042,0.039l0.203,0.163l0.041,0.021l0.203,0.162l0.04,0.02l0.204,0.162l0.021,0.021    l0.203,0.162l0.04,0.02l0.203,0.162l0.021,0.021l0.203,0.163l0.021,0.02l0.223,0.162l0.021,0.021l0.203,0.162h0.02l0.203,0.163    l0.02,0.02l0.204,0.162h0.021l0.203,0.162l0.02,0.021l0.203,0.142l0.02,0.021l0.203,0.143l0.021,0.021l0.203,0.142l0.02,0.021    l0.203,0.142l0.02,0.021l0.203,0.143v0.02l0.203,0.143l0.021,0.02l0.203,0.142l0.02,0.021l0.183,0.142h0.02l0.203,0.163l0,0    l0.203,0.142l0.021,0.021l0.204,0.142l0,0l0.203,0.142l0,0l0.203,0.143l0.02,0.021l0.183,0.142h0.02l0.183,0.142h0.02l0.203,0.142    l0,0l0.204,0.143v0.021l0.203,0.142l0,0l0.183,0.143l0,0l0.203,0.143l0.203,0.141c8.762,6.268,14.562,10.426,23.303,30.301    c6.49,14.764,9.085,16.934,19.53,25.654l3.367,2.84L252.092,282.953z M265.153,347.305c-4.361,2.434-8.944,4.867-13.427,7.24    c-13.588,7.221-26.405,14.015-28.94,18.091c-5.172,8.233-10.526,9.106-15.414,9.876c-4.32,0.689-8.174,1.299-10.79,11.155    c-2.048,7.727-4.522,13.567-7.261,19.875h23.79c5.313-6.429,8.416-10.242,11.052-14.196c2.758-4.178,5.132-8.64,9.086-16.59    c1.136-2.313,2.353-4.482,3.63-6.511c4.786-8.376,9.025-12.817,21.903-23.526l2.171-1.845    C262.354,349.697,263.754,348.521,265.153,347.305z M225.22,100.953c0-1.379,1.116-2.496,2.495-2.496    c1.378,0,2.494,1.117,2.494,2.496v33.828c0,1.379-1.116,2.494-2.494,2.494c-1.379,0-2.495-1.115-2.495-2.494V100.953z     M353.719,172.26c1.177-0.689,2.698-0.283,3.388,0.914c0.689,1.175,0.284,2.696-0.892,3.386l-29.307,16.914    c-1.177,0.69-2.719,0.284-3.387-0.912c-0.689-1.177-0.284-2.697,0.893-3.387L353.719,172.26z M99.235,176.56    c-1.197-0.689-1.602-2.211-0.913-3.386c0.69-1.197,2.21-1.604,3.407-0.914l29.286,16.915c1.196,0.689,1.602,2.21,0.913,3.387    c-0.689,1.196-2.211,1.603-3.408,0.912L99.235,176.56z M289.834,135.328c0.67-1.176,2.212-1.582,3.387-0.912    c1.197,0.689,1.603,2.211,0.913,3.406l-10.322,17.889c-0.689,1.176-2.211,1.582-3.408,0.893c-1.176-0.689-1.582-2.211-0.912-3.387    L289.834,135.328z M356.234,245.373c1.379,0,2.494,1.136,2.494,2.494c0,1.379-1.115,2.494-2.494,2.494h-20.646    c-1.379,0-2.494-1.115-2.494-2.494c0-1.358,1.115-2.494,2.494-2.494H356.234z M99.215,250.361c-1.379,0-2.495-1.115-2.495-2.494    c0-1.358,1.115-2.494,2.495-2.494h20.646c1.359,0,2.494,1.136,2.494,2.494c0,1.379-1.135,2.494-2.494,2.494H99.215z     M161.315,137.822c-0.689-1.195-0.264-2.717,0.913-3.406c1.176-0.67,2.718-0.264,3.387,0.933l10.323,17.868    c0.689,1.196,0.264,2.717-0.913,3.387c-1.197,0.689-2.718,0.283-3.387-0.913L161.315,137.822z M444.435,312.178    c-1.723-3.447-10.384,0.771-10.403,0.791c-1.298,0.568-2.84,0-3.428-1.297c-0.589-1.319,0-2.861,1.298-3.429    c0.04-0.021,9.512-4.826,14.866-1.115c5.334-3.711,14.825,1.095,14.846,1.115c1.297,0.567,1.886,2.109,1.297,3.429    c-0.588,1.297-2.129,1.865-3.427,1.297c-0.021-0.02-8.68-4.238-10.403-0.791l0,0l-0.021,0.061h-0.021l-0.021,0.061l0,0    l-0.041,0.042v0.021l-0.02,0.04l0,0l-0.041,0.061l0,0l-0.04,0.04v0.021l-0.041,0.04l0,0l-0.021,0.04l-0.021,0.021l-0.02,0.04    h-0.021l-0.021,0.041l-0.02,0.021l-0.021,0.021l-0.021,0.02l-0.041,0.041l0,0l-0.04,0.04v0.021l-0.04,0.021l-0.021,0.02    l-0.021,0.021l-0.021,0.021l-0.041,0.02v0.021l-0.04,0.04h-0.021l-0.04,0.041l0,0l-0.041,0.021v0.021l-0.061,0.02l0,0    l-0.041,0.041h-0.02l-0.041,0.04l0,0l-0.061,0.041l0,0l-0.061,0.021l0,0l-0.041,0.04h-0.021l-0.041,0.021l0,0l-0.061,0.02v0.021    l-0.04,0.021h-0.021l-0.04,0.021h-0.021l-0.04,0.02l-0.021,0.02h-0.04l-0.021,0.021h-0.041l-0.04,0.02h-0.021l-0.04,0.02h-0.021    h-0.041l-0.021,0.021h-0.04h-0.021l-0.04,0.02h-0.021l-0.04,0.021h-0.021h-0.04h-0.021l-0.04,0.02h-0.021h-0.041h-0.02h-0.041    h-0.02l-0.041,0.021h-0.021h-0.061l0,0h-0.061l0,0h-0.062l0,0h-0.061l0,0h-0.061l0,0l-0.062-0.021h-0.021h-0.04h-0.021h-0.04    h-0.021l-0.041-0.02h-0.02h-0.041h-0.02l-0.041-0.021h-0.021l-0.041-0.02h-0.02h-0.041l-0.02-0.021h-0.041h-0.021l-0.041-0.02    h-0.02l-0.041-0.02h-0.04l-0.021-0.021h-0.021l-0.04-0.02l-0.041-0.02h-0.02l-0.041-0.021h-0.021l-0.041-0.021v-0.021l-0.061-0.02    l0,0l-0.04-0.021h-0.021l-0.041-0.04l0,0l-0.061-0.021l0,0l-0.061-0.041l0,0l-0.041-0.04h-0.021l-0.04-0.041l0,0l-0.061-0.02    v-0.021l-0.041-0.021l0,0l-0.041-0.041h-0.02l-0.041-0.04v-0.021l-0.04-0.02l-0.021-0.021l-0.021-0.021l-0.021-0.02l-0.04-0.021    v-0.021l-0.041-0.04l0,0l-0.04-0.041l-0.021-0.02l-0.021-0.021l-0.021-0.021l-0.02-0.041h-0.021l-0.021-0.04v-0.021l-0.04-0.04    l0,0l-0.041-0.04v-0.021l-0.041-0.04l0,0l-0.04-0.061l0,0l-0.021-0.04v-0.021l-0.04-0.042l0,0l-0.021-0.061h-0.021    L444.435,312.178L444.435,312.178z M467.291,283.42c-1.703-3.448-10.363,0.79-10.403,0.79c-1.298,0.589-2.84,0-3.428-1.298    c-0.589-1.297,0-2.839,1.298-3.427c0.04-0.021,9.512-4.827,14.866-1.116c5.334-3.711,14.825,1.096,14.846,1.116    c1.318,0.588,1.886,2.13,1.297,3.427c-0.587,1.298-2.129,1.887-3.427,1.298c-0.02,0-8.68-4.238-10.403-0.79v0.02l-0.021,0.041    v0.02l-0.041,0.041l0,0l-0.041,0.061l0,0l-0.02,0.061l0,0l-0.041,0.042l0,0l-0.04,0.061l0,0l-0.021,0.04l-0.02,0.021l-0.021,0.04    l0,0l-0.04,0.041l-0.021,0.021l-0.021,0.04h-0.02l-0.021,0.041l-0.021,0.02l-0.021,0.021l-0.021,0.02l-0.04,0.021v0.02l-0.04,0.04    l0,0l-0.041,0.04h-0.021l-0.021,0.042h-0.021l-0.04,0.04l0,0l-0.04,0.041h-0.021l-0.041,0.04l0,0l-0.061,0.04l0,0l-0.04,0.041l0,0    l-0.062,0.021l0,0l-0.041,0.04h-0.02l-0.041,0.041l0,0l-0.061,0.02l0,0l-0.062,0.041l0,0l-0.04,0.021h-0.021l-0.04,0.021    l-0.021,0.02h-0.041l-0.02,0.021h-0.041l-0.02,0.021l-0.041,0.02l-0.081,0.021l-0.041,0.021h-0.02h-0.041l-0.021,0.021h-0.021    l-0.04,0.02h-0.021h-0.061v0.021h-0.062l0,0l-0.061,0.021l0,0h-0.061h-0.021h-0.041h-0.02l-0.041,0.02h-0.02h-0.041h-0.021h-0.041    h-0.02h-0.041h-0.02h-0.062l0,0h-0.061l0,0h-0.061l0,0H469.4l0,0l-0.061-0.02l0,0h-0.061h-0.021h-0.041h-0.02l-0.041-0.021h-0.02    h-0.041l-0.021-0.021h-0.041h-0.02l-0.041-0.02h-0.02l-0.041-0.021h-0.021h-0.041l-0.02-0.021l-0.102-0.021l-0.021-0.02    l-0.04-0.021h-0.021l-0.021-0.021h-0.04l-0.021-0.02l-0.041-0.021h-0.021l-0.04-0.021h-0.021l-0.04-0.041h-0.021l-0.041-0.02l0,0    l-0.061-0.041l0,0l-0.061-0.04l0,0l-0.041-0.021l0,0l-0.061-0.041l0,0l-0.04-0.04h-0.021l-0.041-0.04l0,0l-0.041-0.041h-0.02    l-0.041-0.04l0,0l-0.04-0.042l0,0l-0.041-0.04h-0.021l-0.02-0.04l-0.021-0.02l-0.04-0.021v-0.02l-0.041-0.021v-0.02l-0.041-0.041    l0,0l-0.04-0.04v-0.021l-0.041-0.041l0,0l-0.04-0.04v-0.021l-0.041-0.04l0,0l-0.041-0.061l0,0l-0.02-0.042l0,0l-0.041-0.061l0,0    l-0.04-0.061l0,0l-0.021-0.041v-0.02l-0.021-0.041L467.291,283.42z M405.191,291.512c-1.724-3.448-10.404,0.771-10.424,0.771    c-1.299,0.589-2.84,0.021-3.428-1.298c-0.588-1.297,0-2.839,1.299-3.428c0.039,0,9.511-4.807,14.865-1.096    c5.334-3.73,14.825,1.096,14.846,1.096c1.298,0.589,1.886,2.131,1.298,3.428c-0.588,1.318-2.13,1.887-3.428,1.298    c-0.021,0-8.681-4.219-10.404-0.771l0,0l-0.04,0.041l0,0l-0.021,0.061l0,0l-0.04,0.061l0,0l-0.021,0.041l-0.021,0.02l-0.021,0.041    v0.021l-0.041,0.04l0,0l-0.04,0.041v0.02l-0.021,0.041h-0.02l-0.021,0.041l-0.021,0.02l-0.021,0.021l-0.021,0.02l-0.021,0.041    l-0.02,0.02l-0.041,0.02v0.021l-0.04,0.021v0.021l-0.041,0.04h-0.021l-0.02,0.04h-0.021l-0.04,0.041v0.021l-0.041,0.021    l-0.021,0.02l-0.041,0.021l0,0l-0.04,0.04h-0.021l-0.04,0.041l0,0l-0.041,0.041h-0.021l-0.04,0.02v0.021l-0.061,0.021l0,0    l-0.041,0.04h-0.021l-0.04,0.021l0,0l-0.061,0.02v0.021l-0.062,0.021l0,0l-0.041,0.021h-0.02l-0.041,0.02l-0.02,0.021h-0.041    l-0.021,0.021l-0.041,0.02h-0.02l-0.041,0.021h-0.02h-0.04l-0.021,0.021h-0.04l-0.021,0.021h-0.04l-0.041,0.021h-0.021h-0.041    l-0.02,0.02h-0.041h-0.02l-0.102,0.021h-0.021h-0.04h-0.021l-0.04,0.021h-0.021h-0.04h-0.021h-0.04h-0.021h-0.041h-0.021h-0.04    h-0.021h-0.04h-0.021h-0.062l0,0h-0.061h-0.02l-0.041-0.021h-0.02h-0.042h-0.02l-0.102-0.021h-0.021h-0.04l-0.021-0.02h-0.04    h-0.021l-0.04-0.021h-0.021l-0.04-0.021h-0.021l-0.04-0.021h-0.021h-0.04l-0.021-0.021h-0.04l-0.021-0.02l-0.021-0.021h-0.04    l-0.021-0.021l-0.041-0.02h-0.02l-0.041-0.021h-0.02l-0.041-0.021l-0.02-0.021l-0.042-0.02l0,0l-0.061-0.021l0,0l-0.061-0.04l0,0    l-0.041-0.021l-0.021-0.021l-0.04-0.02l0,0l-0.04-0.041h-0.021l-0.041-0.041h-0.021l-0.02-0.04h-0.021l-0.04-0.021l-0.021-0.02    l-0.021-0.021l-0.02-0.021l-0.021-0.041h-0.021l-0.04-0.04h-0.021l-0.02-0.04l-0.021-0.021l-0.021-0.021l-0.02-0.021l-0.021-0.02    l-0.021-0.02l-0.04-0.041v-0.02l-0.04-0.021v-0.02l-0.04-0.041l0,0l-0.021-0.041l-0.021-0.02l-0.02-0.041h-0.021l-0.021-0.04    l-0.02-0.021l-0.021-0.041v-0.02l-0.04-0.041l0,0l-0.021-0.061l0,0l-0.04-0.061l0,0L405.191,291.512L405.191,291.512z     M241.972,306.337c-18.456-7.261-36.161-14.218-39.832-20.301l-2.089-3.428c-5.374-8.802-6.916-11.316-10.424-26.649    c-3.407-14.926-1.764-21.133-0.507-25.939c0.912-3.427,1.602-6.002-0.852-11.783c-2.799,4.158-6.693,9.127-10.708,14.258    l-0.101,0.122c-6.55,8.354-13.467,17.179-16.184,23.181c-2.758,6.084-6.712,7.728-10.607,9.35    c-3.001,1.258-5.941,2.494-7.727,6.732c-1.905,4.584-3.021,7.891-3.832,11.379c-0.812,3.508-1.359,7.342-2.129,12.939    l-0.021,0.101c-1.257,8.884-2.515,15.394-4.36,21.234c-1.846,5.882-4.3,11.032-7.91,17.198    c-8.336,14.155-9.978,18.678-16.001,35.39l-0.386,1.055c-4.177,11.54-8.355,19.835-12.655,28.313    c-2.25,4.461-4.542,8.983-6.854,14.034h95.117l0.569-1.299c2.757-6.388,5.273-12.169,7.3-19.835    c3.448-12.979,8.822-13.832,14.826-14.785c3.812-0.607,7.99-1.277,11.945-7.604c3.265-5.212,16.65-12.311,30.827-19.854    c12.208-6.471,25.026-13.265,31.678-18.781c1.115-1.298,2.271-2.656,3.529-4.157C279.796,321.223,260.468,313.618,241.972,306.337    z" style="fill-rule:evenodd;clip-rule:evenodd;"/>

</g>

</g>

<g id="Layer_1"/>

</svg>